<svg width="296" height="312" viewBox="0 0 296 312" fill="none" xmlns="http://www.w3.org/2000/svg">
<g id="SVG">
<path id="Vector 2" d="M40.5 186.5V54.5C49.3 48.9 66.1667 43.5 73.5 41.5V115C112 98 130.5 106 153 122C175.5 138 179.173 167.5 176 184C170 215.2 150.833 231.667 142 234V167.5C129 121 76 142.5 73.5 167.5V234C49 217 42.1667 196.167 40.5 186.5Z" fill="#0E89C5"/>
<path id="Vector 1" d="M108.027 89V63C225.027 66 248.527 211.5 170.527 262.5C108.127 303.3 47.5271 267.167 25.0271 244V262.5C26.1937 265 25.0271 288 23 293.5C17.2465 309.111 7.19373 311.333 0.0270662 311.5C0.3604 272 0.827066 187.6 0.0270662 166C-0.772934 144.4 16.3604 115 25.0271 103C25.5271 96.6667 26.2271 95.9 25.0271 143.5C23.5271 203 26.5271 211 62.5271 240C91.3271 263.2 129.86 254 145.527 246.5C163.194 237.833 196.427 207.7 188.027 156.5C179.627 105.3 131.194 90.1667 108.027 89Z" fill="#646464"/>
<path id="Vector 3" d="M187 69.5C177.5 18.5 219.5 0 241.5 0C295 4 295.5 52.5 295.5 52.5C298 102 254.5 110.5 248 110.5C198 115.5 187 72.5 187 69.5Z" fill="url(#paint0_linear_3_9)"/>
<path id="Vector 4" d="M263 21H244.5L246 41.5H228C220.5 41.5 222 60.5 224.5 60.5C229.3 62.9 241 63.1667 246 63L244.5 85.5C249.7 88.3 254 88 255.5 87.5C270 89 267 61 269 63C277.5 63 284.5 63.5 284.5 60.5C284.5 50.5 285 44.5 284.5 41.5C284 38.5 266.5 41.5 266.5 38.5C265.7 28.1 263.833 22.5 263 21Z" fill="#BEE4FC"/>
</g>
<defs>
<linearGradient id="paint0_linear_3_9" x1="240.641" y1="0" x2="240.641" y2="110.904" gradientUnits="userSpaceOnUse">
<stop stop-color="#309ED3"/>
<stop offset="1" stop-color="#1474A3"/>
</linearGradient>
</defs>
</svg>
